<svg width="149" height="123" viewBox="0 0 149 123" fill="none" xmlns="http://www.w3.org/2000/svg">
<g clip-path="url(#clip0_26_92)">
<path d="M109.891 45.4939C112.164 45.2149 126.216 44.2055 128.69 44.0026C124.978 48.8107 120.103 53.4995 116.043 57.7759" fill="white"/>
<path d="M110.019 46.5361C116.255 45.7909 122.565 45.5705 128.817 45.0448L127.865 43.3583C124.037 48.2914 119.51 52.6151 115.219 57.1316C114.291 58.1119 115.95 59.3993 116.868 58.4202C121.16 53.9037 125.687 49.58 129.514 44.647C130.089 43.9115 129.449 42.8818 128.562 42.9605C122.298 43.4774 115.989 43.7077 109.763 44.4517C108.423 44.6162 108.679 46.7006 110.019 46.5361Z" fill="#3E4679"/>
<path d="M120.448 45.2358C120.606 46.9293 121.426 48.36 122.172 49.8401C122.414 50.3343 122.999 50.6655 123.541 50.4075C124.028 50.1866 124.374 49.5597 124.109 49.0382C123.764 48.3652 123.401 47.7045 123.094 47.0067C122.941 46.6628 122.808 46.3165 122.703 45.9565C122.697 45.9069 122.671 45.8597 122.665 45.8101C122.703 45.9565 122.704 45.9664 122.67 45.8498C122.66 45.7704 122.63 45.6934 122.621 45.614C122.574 45.3981 122.548 45.1896 122.531 44.9701C122.484 44.4217 121.905 43.9689 121.361 44.0558C120.789 44.1562 120.395 44.6379 120.447 45.2259L120.448 45.2358Z" fill="#3E4679"/>
<path d="M109.891 45.4939C92.3603 54.275 30.2492 84.6582 30.2492 84.6582L36.9628 98.8057C36.9628 98.8057 112.883 59.4433 116.033 57.7771L109.891 45.4939Z" fill="#FFDD78"/>
<path d="M109.49 44.5255C97.9954 50.2788 86.4576 55.9265 74.9221 61.594C62.5125 67.6913 50.0917 73.7798 37.6797 79.8572C35.0659 81.1352 32.4521 82.4131 29.8482 83.6899C29.364 83.9306 29.0228 84.5166 29.2808 85.0592C31.5216 89.7713 33.7536 94.4945 35.9944 99.2067C36.2241 99.6822 36.8434 100.05 37.3637 99.7741C39.8932 98.4662 42.4314 97.1471 44.9609 95.8392C51.042 92.6849 57.123 89.5305 63.1953 86.3873C70.6683 82.508 78.1426 78.6386 85.6156 74.7593C92.2083 71.3407 98.8009 67.922 105.392 64.4935C108.954 62.6458 112.537 60.8156 116.084 58.9295C116.207 58.864 116.321 58.8097 116.444 58.7442C116.917 58.4947 117.289 57.9151 117.012 57.3749C114.958 53.2846 112.914 49.1931 110.859 45.0929C110.259 43.8971 108.31 44.6804 108.923 45.8948C110.976 49.9851 113.02 54.0766 115.075 58.1768L115.642 56.8075C112.625 58.407 109.591 59.9582 106.561 61.5391C100.224 64.8256 93.8974 68.1108 87.5606 71.3973C80.0776 75.2779 72.5859 79.1695 65.093 83.0513C58.7276 86.3514 52.3523 89.6526 45.9882 92.9626C43.8759 94.0581 41.7735 95.1524 39.6613 96.2479C38.761 96.711 37.4713 97.1212 36.6971 97.7905C36.6611 97.8252 36.6027 97.8424 36.5642 97.8572L37.9336 98.4246C35.6928 93.7125 33.4608 88.9892 31.22 84.2771L30.6526 85.6464C37.9997 82.0546 45.3556 78.4516 52.7015 74.8498C66.2907 68.1847 79.8799 61.5195 93.4556 54.8257C99.0694 52.0511 104.694 49.2852 110.295 46.4821C111.49 45.8819 110.707 43.9329 109.493 44.5454L109.49 44.5255Z" fill="#3E4679"/>
<path d="M111.962 49.6425C94.4312 58.4236 32.4966 89.1781 32.4966 89.1781L34.8173 94.2129C34.8173 94.2129 110.963 55.6188 114.138 53.9898L111.962 49.6425Z" fill="#3E4679"/>
<path d="M111.561 48.6741C100.066 54.4273 88.5667 60.1409 77.0584 65.8655C64.6759 72.0199 52.2935 78.1743 39.911 84.3287C37.3096 85.6252 34.707 86.9119 32.0956 88.2097C31.6014 88.4517 31.2702 89.0364 31.5282 89.579C32.2985 91.2577 33.0786 92.9351 33.8489 94.6138C34.0698 95.1005 34.6967 95.4467 35.2182 95.1812C37.7414 93.9043 40.2635 92.6175 42.7966 91.3393C48.8949 88.2433 55.003 85.1461 61.1025 82.06C68.6151 78.2565 76.1165 74.4442 83.6291 70.6406C90.2489 67.2791 96.8699 63.9275 103.49 60.566C107.056 58.7581 110.626 56.9799 114.179 55.1434C114.302 55.0779 114.416 55.0236 114.539 54.9581C115.013 54.7186 115.384 54.129 115.106 53.5888C114.384 52.136 113.653 50.6943 112.93 49.2415C112.33 48.0457 110.381 48.829 110.994 50.0434C111.716 51.4962 112.447 52.9379 113.169 54.3907L113.737 53.0214C110.712 54.5614 107.686 56.0915 104.661 57.6315C98.2969 60.8608 91.9416 64.079 85.5776 67.3084C78.0564 71.1231 70.5351 74.9378 63.0039 78.7538C56.6113 81.9967 50.2188 85.2397 43.8163 88.4838C41.7203 89.5471 39.6242 90.6104 37.5281 91.6737C36.6179 92.138 35.3258 92.5283 34.5404 93.1889C34.5032 93.2137 34.4461 93.2408 34.4076 93.2556L35.7769 93.823C35.0067 92.1444 34.2265 90.4669 33.4562 88.7883L32.8888 90.1576C40.22 86.5173 47.5412 82.8783 54.8723 79.238C68.422 72.4971 81.9828 65.7649 95.5313 59.014C101.143 56.2196 106.744 53.4263 112.344 50.6232C113.54 50.023 112.757 48.074 111.542 48.6865L111.561 48.6741Z" fill="#3E4679"/>
</g>
<g clip-path="url(#clip1_26_92)">
<path d="M21.3153 31.3154C22.5025 64.1308 22.7729 86.265 23.5547 111.746C23.6075 113.364 52.0835 113.613 59.1333 110.833C60.303 110.37 57.0653 40.5425 56.7509 31.9794C56.6423 29.0619 45.6716 29.5905 21.3153 31.3154Z" fill="white"/>
<path d="M20.2673 31.3244C21.1864 56.7176 21.6442 82.132 22.3861 107.529C22.4238 108.896 22.2893 110.402 22.5093 111.745C22.5931 112.244 22.7717 112.581 23.2159 112.856C23.9169 113.292 24.8837 113.354 25.6726 113.462C29.1215 113.92 32.6283 113.97 36.1041 113.98C40.3948 114.001 44.7025 113.882 48.9846 113.549C52.2952 113.287 55.8622 113.073 59.0243 111.974C60.4298 111.481 60.3539 110.373 60.3999 109.081C60.4796 107.084 60.4452 105.087 60.4206 103.092C60.3282 96.3279 60.1024 89.5588 59.8645 82.7968C59.3521 67.9793 58.7037 53.1668 58.0773 38.3498C57.9907 36.432 57.9138 34.5168 57.8368 32.6017C57.7706 30.9171 57.0238 30.0337 55.3901 29.5235C52.7649 28.6959 49.7353 28.8365 47.0279 28.8565C41.9428 28.9019 36.8555 29.2263 31.7779 29.5532C28.2908 29.7784 24.7985 30.0229 21.3159 30.2699C19.9753 30.3662 19.9812 32.4694 21.334 32.366C27.561 31.9226 33.7783 31.4765 40.0173 31.1812C43.8651 31.001 47.7496 30.7995 51.6045 31.056C52.6222 31.1216 53.6637 31.2143 54.6464 31.488C55.1293 31.6174 55.1055 31.5903 55.4441 31.7949C55.6578 31.9246 55.6616 31.9878 55.7382 32.0497C55.5947 31.9284 55.7111 32.0735 55.7113 31.9183C55.7215 32.0349 55.7194 32.1585 55.7295 32.2751C55.7388 32.5882 55.7578 32.9039 55.7671 33.2169C55.7963 34.0737 55.8378 34.9234 55.8793 35.7731C56.4512 49.3642 57.052 62.9631 57.551 76.5554C57.8169 83.6769 58.0706 90.8054 58.2321 97.93C58.329 101.973 58.5869 106.111 58.2523 110.141C58.2724 110.53 58.2431 110.253 58.2523 110.141C58.2471 110.161 58.2347 110.323 58.2198 110.34C58.1218 110.396 58.0646 110.339 58.2824 110.222C58.6543 110.032 58.9464 109.83 58.3471 109.98C56.976 110.307 55.6383 110.663 54.2377 110.867C50.3855 111.45 46.4598 111.651 42.5644 111.777C38.6691 111.903 34.5452 111.916 30.5458 111.735C29.0843 111.664 27.6228 111.593 26.1704 111.411C25.7589 111.363 25.3499 111.305 24.9416 111.206C24.7581 111.157 24.5746 111.108 24.391 111.059C24.3041 111.035 24.2313 111.037 24.2443 110.988C24.2443 110.988 25.2579 111.726 24.6132 111.698C24.6132 111.698 24.5884 110.863 24.5922 110.926C24.5686 110.164 24.5476 109.392 24.5267 108.621C24.4871 107.223 24.445 105.835 24.4054 104.437C24.3277 101.559 24.25 98.6803 24.1749 95.7925C24.0397 90.2693 23.9021 84.7558 23.767 79.2326C23.465 66.7595 23.1411 54.2908 22.7347 41.8207C22.6217 38.3015 22.499 34.7798 22.3667 31.2554C22.3142 29.9059 20.2206 29.9143 20.2705 31.2735L20.2802 31.2761L20.2673 31.3244Z" fill="#3E4679"/>
<path d="M28.264 62.3721C28.6278 70.0168 28.5096 75.1718 28.708 81.1157C28.721 81.4919 47.6152 81.1815 52.3384 80.4386C53.1289 80.3088 51.8839 64.0526 51.7839 62.0692C51.7492 61.387 44.4629 61.6501 28.2737 62.3747" fill="#8EC5FF"/>
<path d="M27.216 62.3811C27.4527 67.4864 27.4807 72.5978 27.5719 77.7054C27.5854 78.7754 27.55 79.8736 27.6485 80.9353C27.7013 81.5499 27.8882 81.9727 28.5083 82.1699C29.0898 82.3568 29.8429 82.2894 30.4393 82.3043C36.5206 82.443 42.661 82.2455 48.7346 81.8334C49.8517 81.76 50.9713 81.677 52.0897 81.5211C53.1206 81.3832 53.4716 80.8458 53.5804 79.8603C53.8493 77.427 53.596 74.8952 53.472 72.4601C53.3267 69.5638 53.1401 66.6668 52.9439 63.7672C52.8553 62.3977 53.016 61.0638 51.3764 60.7694C49.0064 60.3414 46.4185 60.6108 44.0305 60.6749C38.774 60.8194 33.5206 61.0682 28.2602 61.3047C26.9177 61.3695 26.9164 63.4604 28.2783 63.4008C35.3083 63.0897 42.4057 62.5275 49.4564 62.7189C49.8055 62.7296 50.145 62.7378 50.4889 62.7678C50.9276 62.7922 50.7723 62.792 51.0409 62.8329C51.4498 62.8907 51.1509 62.9245 50.9895 62.7156C50.7522 62.4035 50.7874 62.0403 50.742 62.2869C50.7006 62.4415 50.7647 62.6657 50.7742 62.8235C50.9241 65.162 51.0862 67.4934 51.2264 69.8293C51.3797 72.5414 51.5497 75.2683 51.5477 77.9802C51.5505 78.395 51.5435 78.8073 51.5269 79.2169C51.5209 79.4327 51.461 79.9654 51.4513 79.9628C51.273 79.8943 52.2467 79.5444 51.9331 79.4397C51.8462 79.4164 51.5588 79.4843 51.4738 79.4926C50.9513 79.5493 50.4314 79.5963 49.9115 79.6434C44.1863 80.1074 38.4017 80.2138 32.6648 80.2192C31.629 80.2212 30.5932 80.2232 29.5607 80.1743C29.4177 80.167 29.2676 80.1475 29.122 80.1499C28.9133 80.1561 29.0608 80.1853 29.0544 80.1318C29.0698 80.2291 30.5188 80.4621 29.7481 80.7111C29.7945 80.6925 29.7266 79.8253 29.7254 79.7526C29.7106 79.1895 29.6985 78.6169 29.6837 78.0539C29.5849 72.82 29.559 67.5849 29.3243 62.356C29.2596 61.0135 27.1564 61.0193 27.2282 62.3741L27.216 62.3811Z" fill="#3E4679"/>
<path d="M27.5143 37.5834C27.8781 45.2281 27.7598 50.3831 27.9582 56.327C27.9713 56.7032 46.8654 56.3928 51.5886 55.6499C52.3766 55.5298 51.1341 39.2639 51.0341 37.2805C50.9995 36.5983 43.7131 36.8614 27.5239 37.586" fill="#E861BC"/>
<path d="M26.4662 37.5924C26.703 42.6977 26.7336 47.7994 26.8221 52.9167C26.8357 53.9867 26.8002 55.0849 26.8988 56.1466C26.9515 56.7612 27.1385 57.184 27.7585 57.3812C28.34 57.5681 29.0905 57.5103 29.6896 57.5156C35.7709 57.6543 41.9112 57.4568 47.9848 57.0447C49.1019 56.9713 50.2215 56.8883 51.34 56.7324C52.3708 56.5945 52.7219 56.0571 52.8306 55.0716C53.0996 52.6383 52.8462 50.1065 52.7222 47.6714C52.5769 44.7751 52.3903 41.8781 52.1941 38.9786C52.1056 37.609 52.2663 36.2751 50.6266 35.9807C48.2566 35.5527 45.6687 35.8221 43.2808 35.8862C38.0243 36.0307 32.7709 36.2795 27.5104 36.516C26.1679 36.5808 26.1667 38.6717 27.5285 38.6121C34.5586 38.301 41.6656 37.7414 48.7092 37.9205C49.0583 37.9313 49.3978 37.9394 49.7417 37.9694C50.1804 37.9938 50.0251 37.9936 50.2937 38.0345C50.7027 38.0923 50.4037 38.1261 50.2423 37.9172C50.005 37.6052 50.0402 37.2419 49.9948 37.4886C49.9534 37.6431 50.0176 37.8674 50.027 38.0252C50.1769 40.3637 50.339 42.695 50.4792 45.0309C50.6325 47.743 50.8025 50.4699 50.8006 53.1818C50.8033 53.5967 50.7964 54.0089 50.7798 54.4186C50.7737 54.6344 50.7138 55.167 50.7041 55.1644C50.5232 55.1056 51.4995 54.746 51.186 54.6413C51.099 54.618 50.8116 54.686 50.7266 54.6942C50.2041 54.7509 49.6842 54.798 49.1643 54.845C43.4392 55.309 37.6545 55.4155 31.9176 55.4209C30.8818 55.4228 29.846 55.4248 28.8161 55.3663C28.6731 55.359 28.523 55.3395 28.3774 55.3419C28.1687 55.3481 28.3162 55.3773 28.3098 55.3238C28.3252 55.4211 29.7743 55.6541 29.0035 55.9031C29.0499 55.8845 28.9821 55.0173 28.9809 54.9445C28.9661 54.3815 28.9539 53.8089 28.9391 53.2458C28.8404 48.012 28.8144 42.7769 28.5798 37.548C28.515 36.2055 26.4118 36.2113 26.4836 37.5661L26.4662 37.5924Z" fill="#3E4679"/>
<path d="M29.0112 87.1705C29.375 94.8152 29.2568 99.9702 29.4552 105.914C29.4682 106.29 48.3624 105.98 53.0856 105.237C53.8761 105.107 52.6311 88.851 52.531 86.8676C52.4964 86.1854 45.2101 86.4485 29.0209 87.1731" fill="#FFDD78"/>
<path d="M27.9632 87.1795C28.1999 92.2848 28.2279 97.3962 28.3191 102.504C28.3326 103.574 28.2972 104.672 28.3957 105.734C28.4485 106.348 28.6354 106.771 29.2555 106.968C29.8369 107.155 30.59 107.088 31.1865 107.103C37.2678 107.241 43.4082 107.044 49.4818 106.632C50.5988 106.558 51.7185 106.475 52.8369 106.32C53.8677 106.182 54.2188 105.644 54.3276 104.659C54.5965 102.225 54.3432 99.6936 54.2192 97.2585C54.0739 94.3622 53.8873 91.4652 53.6911 88.5656C53.6025 87.1961 53.7632 85.8622 52.1236 85.5678C49.7536 85.1398 47.1657 85.4092 44.7777 85.4733C39.5212 85.6178 34.2678 85.8666 29.0074 86.1031C27.6648 86.1679 27.6636 88.2588 29.0255 88.1992C36.0555 87.8881 43.1625 87.3285 50.2036 87.5173C50.5527 87.528 50.8922 87.5362 51.2361 87.5662C51.6747 87.5906 51.5195 87.5904 51.7881 87.6313C52.197 87.6891 51.8981 87.7229 51.7367 87.514C51.4994 87.2019 51.5346 86.8387 51.4892 87.0853C51.4478 87.2399 51.5119 87.4641 51.5214 87.6219C51.6713 89.9604 51.8334 92.2918 51.9736 94.6277C52.1365 97.3424 52.2969 100.067 52.2949 102.779C52.2976 103.193 52.2907 103.606 52.2741 104.015C52.2681 104.231 52.2082 104.764 52.1985 104.761C52.0176 104.702 52.9939 104.343 52.6803 104.238C52.5934 104.215 52.306 104.283 52.221 104.291C51.6985 104.348 51.1786 104.395 50.6587 104.442C44.9335 104.906 39.1489 105.012 33.412 105.018C32.3762 105.02 31.3404 105.022 30.3079 104.973C30.1649 104.965 30.0148 104.946 29.8692 104.948C29.6605 104.955 29.808 104.984 29.8016 104.93C29.8169 105.027 31.266 105.26 30.4953 105.509C30.5417 105.491 30.4738 104.624 30.4726 104.551C30.4578 103.988 30.4456 103.415 30.4309 102.852C30.3321 97.6184 30.3062 92.3833 30.0715 87.1544C30.0068 85.8119 27.9036 85.8177 27.9754 87.1725L27.9632 87.1795Z" fill="#3E4679"/>
</g>
<g clip-path="url(#clip2_26_92)">
<path d="M94.226 30.7579C92.0585 48.432 90.8019 70.1886 89.8652 83.331C89.1722 93.0114 88.9892 111.808 96.52 111.965C106.441 112.161 104.156 87.4592 103.78 83.0506C102.013 62.3312 101.536 49.8969 99.4125 30.6346" fill="#FFDD78"/>
<path d="M93.1816 30.7669C91.432 45.1373 90.4385 59.598 89.4551 74.0413C89.0822 79.5071 88.5741 84.9873 88.5087 90.4805C88.445 95.8708 88.5371 101.651 90.2518 106.821C91.423 110.373 93.9848 113.896 98.2018 112.832C101.905 111.898 103.501 107.773 104.275 104.433C106.195 96.1074 105.188 87.3509 104.501 78.9407C103.349 64.7769 102.511 50.5872 101.093 36.4432C100.896 34.5049 100.694 32.5753 100.483 30.6406C100.339 29.3103 98.2376 29.3096 98.3854 30.6536C99.8586 44.1019 100.765 57.5924 101.788 71.0809C102.486 80.2713 103.797 89.6196 103.011 98.8419C102.713 102.319 102.244 106.909 99.6924 109.57C98.7079 110.595 97.2652 111.194 95.8354 110.83C94.2644 110.431 93.3375 108.857 92.7309 107.467C90.6865 102.788 90.6224 97.1395 90.61 92.1209C90.5976 87.1024 91.0277 81.8774 91.3755 76.7551C92.4225 61.4016 93.4212 46.0318 95.2878 30.7589C95.4488 29.42 93.3463 29.4416 93.1902 30.7719L93.1816 30.7669Z" fill="#3E4679"/>
<path d="M102.052 49.0632C101.429 43.3225 100.722 37.4066 99.7487 30.6324L93.2016 30.7322C92.3526 36.4428 91.6257 42.5818 90.9931 48.7175C94.4751 49.7464 98.4229 49.8086 102.047 49.0719L102.052 49.0632Z" fill="#5E72D8"/>
<path d="M103.011 49.0625C102.336 42.8304 101.568 36.6016 100.673 30.3921C100.612 29.9763 100.129 29.674 99.7343 29.6772C97.5549 29.7122 95.3754 29.7471 93.1873 29.7771C92.8015 29.7853 92.3227 30.0746 92.2612 30.501C91.3648 36.5537 90.6456 42.6394 90.0156 48.7305C89.9678 49.1533 90.3605 49.5532 90.7396 49.6566C94.5055 50.7339 98.4646 50.7564 102.282 50.0044C103.506 49.7643 102.995 47.9101 101.784 48.1466C98.2847 48.8281 94.663 48.781 91.2143 47.7944L91.9382 48.7205C92.5538 42.7943 93.245 36.8772 94.1184 30.9844L93.1923 31.7083C95.3718 31.6734 97.5512 31.6384 99.7394 31.6085L98.8011 30.8936C99.6747 36.9405 100.413 43.0017 101.074 49.0762C101.203 50.2936 103.138 50.3022 102.997 49.0662L103.011 49.0625Z" fill="#3E4679"/>
<path d="M91.583 46.0558C94.7085 47.2022 98.1296 47.1567 101.394 46.7433C101.953 46.6738 102.441 46.3088 102.443 45.6862C102.438 45.1751 101.954 44.5727 101.386 44.6371C98.2842 45.0289 95.0987 45.1065 92.113 44.0178C91.578 43.8244 90.9695 44.2583 90.8358 44.77C90.6794 45.3609 91.053 45.8538 91.588 46.0472L91.583 46.0558Z" fill="#3E4679"/>
<path d="M95.8735 1.44434C94.5764 8.35108 80.1267 30.2386 94.0983 32.1391C113.776 34.8165 102.796 13.3739 95.8735 1.44434Z" fill="white"/>
<path d="M94.8588 1.18184C94.5098 2.9664 93.753 4.67721 93.0435 6.34606C92.062 8.66612 91.0321 10.9698 90.0939 13.3149C88.3782 17.5667 86.3514 22.5972 87.1814 27.2796C88.1581 32.7278 94.1131 33.8335 98.8336 33.3373C101.417 33.0622 103.975 32.033 105.283 29.6474C106.591 27.2618 106.423 24.6129 105.998 22.1278C105.362 18.389 103.885 14.7878 102.299 11.3549C100.713 7.92197 98.7557 4.33234 96.7825 0.92993C96.1093 -0.243968 94.2813 0.802199 94.9595 1.96744C98.155 7.47274 101.333 13.1876 103.165 19.3144C104.412 23.4752 105.448 29.7201 99.9304 31.0376C97.467 31.6244 94.1158 31.5487 91.8052 30.411C90.3125 29.6762 89.4738 28.349 89.2081 26.7292C88.5281 22.6069 90.4512 18.0361 91.9352 14.2856C92.8848 11.9009 93.9347 9.56256 94.9325 7.19419C95.6797 5.42008 96.5101 3.60169 96.8795 1.70187C97.1508 0.392013 95.1178 -0.146673 94.8588 1.18184Z" fill="#3E4679"/>
<path d="M94.757 2.87817C95.2338 5.83235 94.4037 8.69016 93.471 11.4657C92.5382 14.2411 91.6138 17.1023 91.5906 20.1026C91.5858 21.4508 93.6783 21.4465 93.6881 20.0896C93.703 17.0037 94.8024 14.1396 95.7418 11.2525C96.6812 8.36541 97.2848 5.39991 96.7924 2.33279C96.5726 0.993467 94.5409 1.5525 94.757 2.87817Z" fill="#3E4679"/>
<path d="M95.3265 3.39174C95.9626 9.29001 95.7215 15.2476 96.5065 21.1279C96.5846 21.6926 96.946 22.1668 97.5636 22.177C98.0697 22.1805 98.6821 21.6797 98.6127 21.12C97.819 15.2346 98.0601 9.27702 97.424 3.37876C97.2799 2.04845 95.1787 2.04778 95.3265 3.39174Z" fill="#3E4679"/>
<path d="M95.8012 4.58956C97.4393 8.87237 98.5246 13.3326 99.6968 17.7622C100.04 19.0685 102.07 18.5318 101.719 17.2204C100.546 12.7909 99.461 8.33065 97.8229 4.04784C97.6219 3.51607 97.1286 3.15045 96.5412 3.30784C96.0358 3.44327 95.5952 4.06645 95.8012 4.58956Z" fill="#3E4679"/>
</g>
<defs>
<clipPath id="clip0_26_92">
<rect width="46.18" height="104.77" fill="white" transform="translate(129.491 42) rotate(83.0024)"/>
</clipPath>
<clipPath id="clip1_26_92">
<rect width="59.23" height="88.95" fill="white" transform="translate(23.022 20.8505) rotate(15)"/>
</clipPath>
<clipPath id="clip2_26_92">
<rect width="60.71" height="97.94" fill="white" transform="translate(95.4719) rotate(30)"/>
</clipPath>
</defs>
</svg>
